<svg width="26" height="26" viewBox="0 0 26 26" fill="none" xmlns="http://www.w3.org/2000/svg">
<path d="M11.2128 3.42529L12.3056 2.34131C12.7683 1.88232 13.5166 1.88232 13.9744 2.34131L23.5437 11.8286C24.0064 12.2876 24.0064 13.0298 23.5437 13.4839L13.9744 22.9761C13.5116 23.4351 12.7634 23.4351 12.3056 22.9761L11.2128 21.8921C10.7452 21.4282 10.755 20.6714 11.2325 20.2173L17.1641 14.6118H3.01685C2.36216 14.6118 1.83545 14.0894 1.83545 13.4399V11.8774C1.83545 11.228 2.36216 10.7056 3.01685 10.7056H17.1641L11.2325 5.1001C10.7501 4.646 10.7403 3.88916 11.2128 3.42529Z" fill="black"/>
</svg>
